<svg width="800" height="800" viewBox="0 0 800 800" fill="none" xmlns="http://www.w3.org/2000/svg">
<rect width="800" height="800" fill="white"/>
<path fill-rule="evenodd" clip-rule="evenodd" d="M575 225C616.422 225 650 258.579 650 300V550C650 591.423 616.422 625.001 575 625.001H225C183.579 625.001 150 591.423 150 550V300C150 258.579 183.579 225 225 225H575ZM600 365.62H425.002C411.197 365.62 396.107 355.127 391.302 342.183L366.357 275H225C211.193 275 200 286.193 200 300V550C200 563.808 211.193 575.001 225 575.001H575C588.807 575.001 600 563.808 600 550V365.62Z" fill="#24292F"/>
<path d="M495 187.571C495 180.628 499.925 175 506 175H554C560.075 175 565 180.628 565 187.571V242.429C565 249.372 560.075 255 554 255H506C499.925 255 495 249.372 495 242.429V187.571Z" fill="#24292F"/>
<path d="M235 187.571C235 180.628 239.925 175 246 175H294C300.075 175 305 180.628 305 187.571V242.429C305 249.372 300.075 255 294 255H246C239.925 255 235 249.372 235 242.429V187.571Z" fill="#24292F"/>
<path d="M276.111 413C257.826 413 242.715 426.59 240.328 444.221C239.891 447.448 240.393 450.71 241.172 453.872C243.113 461.758 246.165 469.368 250.856 475.999C257.528 485.429 265.021 494.228 273.236 502.417L305.365 534.448L338.114 501.997C346.056 494.128 353.175 485.484 359.369 476.201C363.945 469.343 366.885 461.566 368.886 453.568C369.626 450.608 370.095 447.554 369.712 444.527C367.459 426.748 352.28 413 333.889 413C322.076 413 311.588 418.672 305 427.441C298.412 418.672 287.924 413 276.111 413Z" fill="#24292F"/>
<path d="M466.111 413C447.826 413 432.715 426.59 430.328 444.221C429.891 447.448 430.393 450.71 431.172 453.872C433.113 461.758 436.165 469.368 440.856 475.999C447.528 485.429 455.021 494.228 463.236 502.417L495.365 534.448L528.114 501.997C536.056 494.128 543.175 485.484 549.369 476.201C553.945 469.343 556.885 461.566 558.886 453.568C559.626 450.608 560.095 447.554 559.712 444.527C557.459 426.748 542.28 413 523.889 413C512.076 413 501.588 418.672 495 427.441C488.412 418.672 477.924 413 466.111 413Z" fill="#24292F"/>
</svg>
