<svg width="800" height="800" viewBox="0 0 800 800" fill="none" xmlns="http://www.w3.org/2000/svg">
<rect width="800" height="800" fill="white"/>
<path fill-rule="evenodd" clip-rule="evenodd" d="M575 225C616.422 225 650 258.579 650 300V550C650 591.423 616.422 625.001 575 625.001H225C183.579 625.001 150 591.423 150 550V300C150 258.579 183.579 225 225 225H575ZM600 365.62H425.002C411.197 365.62 396.107 355.127 391.302 342.183L366.357 275H225C211.193 275 200 286.193 200 300V550C200 563.808 211.193 575.001 225 575.001H575C588.807 575.001 600 563.808 600 550V365.62Z" fill="#24292F"/>
<path d="M495 187.571C495 180.628 499.925 175 506 175H554C560.075 175 565 180.628 565 187.571V242.429C565 249.372 560.075 255 554 255H506C499.925 255 495 249.372 495 242.429V187.571Z" fill="#24292F"/>
<path d="M235 187.571C235 180.628 239.925 175 246 175H294C300.075 175 305 180.628 305 187.571V242.429C305 249.372 300.075 255 294 255H246C239.925 255 235 249.372 235 242.429V187.571Z" fill="#24292F"/>
<path d="M287.537 410C265.377 420.302 250 442.863 250 469.037C250 504.935 278.925 534.037 314.606 534.037C333.869 534.037 351.163 525.555 363 512.101L287.537 410Z" fill="#24292F"/>
<path d="M512.463 411C534.623 421.299 550 443.853 550 470.019C550 505.907 521.075 535 485.394 535C466.131 535 448.837 526.521 437 513.071L512.463 411Z" fill="#24292F"/>
</svg>
