<svg width="800" height="800" viewBox="0 0 800 800" fill="none" xmlns="http://www.w3.org/2000/svg">
<rect width="800" height="800" fill="white"/>
<path d="M354.637 439.76C354.806 464.059 343.422 488.032 322.011 503.024C299.843 518.546 272.303 520.675 249 511.105C270.903 532.75 305.804 536.347 331.926 518.056C357.427 500.2 366.188 467.349 354.637 439.76Z" fill="#24292F"/>
<path d="M548.72 512.865C525.944 521.334 499.523 518.836 478.112 503.844C455.944 488.322 444.525 463.171 445.548 438C432.699 465.985 441.256 500.011 467.378 518.302C492.879 536.158 526.746 533.155 548.72 512.865Z" fill="#24292F"/>
<path fill-rule="evenodd" clip-rule="evenodd" d="M575 225C616.422 225 650 258.579 650 300V550C650 591.423 616.422 625.001 575 625.001H225C183.579 625.001 150 591.423 150 550V300C150 258.579 183.579 225 225 225H575ZM600 365.62H425.002C411.197 365.62 396.107 355.127 391.302 342.183L366.357 275H225C211.193 275 200 286.193 200 300V550C200 563.808 211.193 575.001 225 575.001H575C588.807 575.001 600 563.808 600 550V365.62Z" fill="#24292F"/>
<path d="M495 187.571C495 180.628 499.925 175 506 175H554C560.075 175 565 180.628 565 187.571V242.429C565 249.372 560.075 255 554 255H506C499.925 255 495 249.372 495 242.429V187.571Z" fill="#24292F"/>
<path d="M235 187.571C235 180.628 239.925 175 246 175H294C300.075 175 305 180.628 305 187.571V242.429C305 249.372 300.075 255 294 255H246C239.925 255 235 249.372 235 242.429V187.571Z" fill="#24292F"/>
</svg>
