<svg width="800" height="800" viewBox="0 0 800 800" fill="none" xmlns="http://www.w3.org/2000/svg">
<rect width="800" height="800" fill="#24292F"/>
<path fill-rule="evenodd" clip-rule="evenodd" d="M575 200C616.422 200 650 233.579 650 275V525C650 566.423 616.422 600.001 575 600.001H225C183.579 600.001 150 566.423 150 525V275C150 233.579 183.579 200 225 200H575ZM600 340.62H425.002C411.197 340.62 396.107 330.127 391.302 317.183L366.357 250H225C211.193 250 200 261.193 200 275V525C200 538.808 211.193 550.001 225 550.001H575C588.807 550.001 600 538.808 600 525V340.62Z" fill="white"/>
</svg>
