<svg width="800" height="800" viewBox="0 0 800 800" fill="none" xmlns="http://www.w3.org/2000/svg">
<path d="M425.002 340.62H600V525C600 538.808 588.807 550.001 575 550.001H225C211.193 550.001 200 538.808 200 525V275C200 261.193 211.193 250 225 250H366.357L391.302 317.183C396.107 330.127 411.197 340.62 425.002 340.62Z" fill="#24292F"/>
<path fill-rule="evenodd" clip-rule="evenodd" d="M800 0H0V800H800V0ZM650 275C650 233.579 616.422 200 575 200H225C183.579 200 150 233.579 150 275V525C150 566.423 183.579 600.001 225 600.001H575C616.422 600.001 650 566.423 650 525V275Z" fill="#24292F"/>
</svg>
