<svg width="800" height="800" viewBox="0 0 800 800" fill="none" xmlns="http://www.w3.org/2000/svg">
<rect width="800" height="800" fill="#24292F"/>
<path fill-rule="evenodd" clip-rule="evenodd" d="M575 225C616.422 225 650 258.579 650 300V550C650 591.423 616.422 625.001 575 625.001H225C183.579 625.001 150 591.423 150 550V300C150 258.579 183.579 225 225 225H575ZM600 365.62H425.002C411.197 365.62 396.107 355.127 391.302 342.183L366.357 275H225C211.193 275 200 286.193 200 300V550C200 563.808 211.193 575.001 225 575.001H575C588.807 575.001 600 563.808 600 550V365.62Z" fill="white"/>
<path d="M265.003 440L342.784 519.55M265 519.554L342.78 440" stroke="white" stroke-width="30" stroke-linecap="round"/>
<path d="M457.003 440L534.784 519.55M457 519.554L534.78 440" stroke="white" stroke-width="30" stroke-linecap="round"/>
<path d="M495 187.571C495 180.628 499.925 175 506 175H554C560.075 175 565 180.628 565 187.571V242.429C565 249.372 560.075 255 554 255H506C499.925 255 495 249.372 495 242.429V187.571Z" fill="white"/>
<path d="M235 187.571C235 180.628 239.925 175 246 175H294C300.075 175 305 180.628 305 187.571V242.429C305 249.372 300.075 255 294 255H246C239.925 255 235 249.372 235 242.429V187.571Z" fill="white"/>
</svg>
