<svg xmlns="http://www.w3.org/2000/svg" viewBox="0 0 257.67 290.73"><g id="Camada_3" data-name="Camada 3"><path d="M267.84,69.56,161,7.87a22,22,0,0,0-22,0L32.16,69.56a22,22,0,0,0-11,19V212a22,22,0,0,0,11,19L139,292.71a22,22,0,0,0,22,0L267.84,231a22,22,0,0,0,11-19V88.6A22,22,0,0,0,267.84,69.56Zm-50.6,93.85-54.11,54.12a18.63,18.63,0,0,1-26.26,0L82.76,163.41a18.61,18.61,0,0,1,0-26.25l54.11-54.11a18.63,18.63,0,0,1,26.26,0l54.11,54.11A18.61,18.61,0,0,1,217.24,163.41Z" transform="translate(-21.16 -4.92)"/></g></svg>