<svg xmlns="http://www.w3.org/2000/svg" xmlns:xlink="http://www.w3.org/1999/xlink" viewBox="0 0 258.67 291.73"><defs><style>.cls-1{stroke:#000;stroke-miterlimit:10;fill:url(#Gradiente_sem_nome_17);}</style><radialGradient id="Gradiente_sem_nome_17" cx="150" cy="150.29" r="137.35" gradientUnits="userSpaceOnUse"><stop offset="0" stop-opacity="0.3"/><stop offset="0.03" stop-opacity="0.3"/><stop offset="1" stop-opacity="0.3"/></radialGradient></defs><g id="Camada_3" data-name="Camada 3"><path class="cls-1" d="M267.84,69.56,161,7.87a22,22,0,0,0-22,0L32.16,69.56a22,22,0,0,0-11,19V212a22,22,0,0,0,11,19L139,292.71a22,22,0,0,0,22,0L267.84,231a22,22,0,0,0,11-19V88.6A22,22,0,0,0,267.84,69.56Zm-50.6,93.85-54.11,54.12a18.63,18.63,0,0,1-26.26,0L82.76,163.41a18.61,18.61,0,0,1,0-26.25l54.11-54.11a18.63,18.63,0,0,1,26.26,0l54.11,54.11A18.61,18.61,0,0,1,217.24,163.41Z" transform="translate(-20.66 -4.42)"/></g></svg>